<?xml version="1.0" standalone="no"?>
<!DOCTYPE svg PUBLIC "-//W3C//DTD SVG 20010904//EN"
 "http://www.w3.org/TR/2001/REC-SVG-20010904/DTD/svg10.dtd">
<svg version="1.0" xmlns="http://www.w3.org/2000/svg"
 width="512.000000pt" height="512.000000pt" viewBox="0 0 512.000000 512.000000"
 preserveAspectRatio="xMidYMid meet">
<metadata>
Created by potrace 1.14, written by Peter Selinger 2001-2017
</metadata>
<g transform="translate(0.000000,512.000000) scale(0.100000,-0.100000)"
fill="#000000" stroke="none">
<path d="M1448 5115 c-2 -1 -28 -6 -58 -9 -73 -9 -257 -53 -323 -78 -28 -11
-65 -24 -82 -30 -50 -19 -215 -107 -277 -149 -262 -178 -470 -435 -589 -726
-81 -199 -112 -362 -113 -583 -1 -197 4 -242 40 -395 102 -435 404 -827 794
-1032 208 -109 435 -176 634 -187 18 -1 19 -11 22 -136 2 -118 12 -226 29
-310 21 -103 29 -138 50 -202 78 -246 186 -441 350 -636 284 -338 701 -566
1145 -627 79 -11 362 -13 440 -4 41 5 109 16 150 25 41 8 86 18 100 20 80 16
317 110 408 162 26 15 58 33 72 40 51 26 203 141 282 212 322 294 533 698 585
1120 12 99 8 406 -6 490 -43 254 -137 504 -262 703 -178 282 -470 537 -781
680 -82 38 -269 103 -321 113 -18 3 -50 9 -72 14 -98 22 -206 33 -345 36 -134
2 -131 2 -128 12 2 6 -13 147 -17 162 0 3 -4 23 -8 45 -10 52 -65 230 -84 275
-102 231 -198 373 -358 533 -227 226 -505 375 -815 436 -30 6 -68 13 -85 17
-31 6 -371 15 -377 9z"/>
<path d="M3485 4901 c-56 -24 -84 -95 -59 -147 21 -43 45 -54 142 -65 370 -41
686 -280 820 -620 16 -41 33 -89 37 -107 l7 -32 -119 60 c-65 33 -132 61 -148
62 -73 3 -121 -61 -106 -143 4 -25 69 -64 269 -164 252 -126 283 -135 327 -91
29 29 242 453 248 492 12 85 -71 145 -148 108 -29 -13 -44 -33 -81 -107 -25
-51 -47 -93 -48 -95 -2 -1 -13 26 -26 60 -159 442 -565 753 -1035 792 -33 3
-69 1 -80 -3z"/>
<path d="M478 1474 c-22 -11 -55 -69 -148 -255 -66 -132 -120 -249 -120 -260
0 -60 61 -112 121 -103 48 8 75 37 124 134 35 68 45 81 50 65 71 -209 153
-343 295 -486 52 -53 131 -120 174 -149 129 -86 298 -158 438 -186 50 -9 186
-23 204 -19 10 2 22 4 25 4 4 1 18 12 32 26 29 30 38 66 26 109 -14 48 -50 68
-140 77 -350 35 -652 247 -803 563 -29 60 -65 162 -66 183 0 6 54 -15 120 -48
73 -36 132 -59 152 -59 84 0 130 94 83 167 -20 30 -470 253 -510 253 -16 -1
-42 -7 -57 -16z"/>
</g>
</svg>
